<svg xmlns="http://www.w3.org/2000/svg" xmlns:xlink="http://www.w3.org/1999/xlink" zoomAndPan="magnify" preserveAspectRatio="xMidYMid meet" version="1.0" viewBox="61.64 416.94 1395.9 553.54"><defs><g/><clipPath id="6c495a1bdb"><rect x="0" width="1359" y="0" height="686"/></clipPath><clipPath id="d64cc9e0cd"><path d="M 1280.472656 516.785156 L 1419.371094 516.785156 L 1419.371094 655.6875 L 1280.472656 655.6875 Z M 1280.472656 516.785156 " clip-rule="nonzero"/></clipPath><clipPath id="cf378546b1"><path d="M 1349.921875 516.785156 C 1311.566406 516.785156 1280.472656 547.878906 1280.472656 586.234375 C 1280.472656 624.59375 1311.566406 655.6875 1349.921875 655.6875 C 1388.277344 655.6875 1419.371094 624.59375 1419.371094 586.234375 C 1419.371094 547.878906 1388.277344 516.785156 1349.921875 516.785156 Z M 1349.921875 516.785156 " clip-rule="nonzero"/></clipPath><clipPath id="d718d4d026"><path d="M 0.472656 0.785156 L 139.371094 0.785156 L 139.371094 139.6875 L 0.472656 139.6875 Z M 0.472656 0.785156 " clip-rule="nonzero"/></clipPath><clipPath id="59d3481e71"><path d="M 69.921875 0.785156 C 31.566406 0.785156 0.472656 31.878906 0.472656 70.234375 C 0.472656 108.59375 31.566406 139.6875 69.921875 139.6875 C 108.277344 139.6875 139.371094 108.59375 139.371094 70.234375 C 139.371094 31.878906 108.277344 0.785156 69.921875 0.785156 Z M 69.921875 0.785156 " clip-rule="nonzero"/></clipPath><clipPath id="8061540850"><rect x="0" width="140" y="0" height="140"/></clipPath><clipPath id="5126621240"><path d="M 1334 606 L 1432 606 L 1432 705 L 1334 705 Z M 1334 606 " clip-rule="nonzero"/></clipPath><clipPath id="24c124d96a"><path d="M 1315.488281 641.425781 L 1397.316406 588.113281 L 1450.632812 669.941406 L 1368.800781 723.257812 Z M 1315.488281 641.425781 " clip-rule="nonzero"/></clipPath><clipPath id="a551ce5742"><path d="M 1356.402344 614.769531 C 1333.804688 629.492188 1327.421875 659.746094 1342.144531 682.34375 C 1356.867188 704.941406 1387.121094 711.324219 1409.714844 696.601562 C 1432.3125 681.878906 1438.695312 651.625 1423.972656 629.027344 C 1409.25 606.429688 1379 600.046875 1356.402344 614.769531 Z M 1356.402344 614.769531 " clip-rule="nonzero"/></clipPath><clipPath id="ef62d35af4"><path d="M 0 0 L 98 0 L 98 99 L 0 99 Z M 0 0 " clip-rule="nonzero"/></clipPath><clipPath id="095cd97803"><path d="M -18.511719 35.425781 L 63.316406 -17.886719 L 116.632812 63.941406 L 34.800781 117.257812 Z M -18.511719 35.425781 " clip-rule="nonzero"/></clipPath><clipPath id="b7677df70b"><path d="M 22.402344 8.769531 C -0.195312 23.492188 -6.578125 53.746094 8.144531 76.34375 C 22.867188 98.941406 53.121094 105.324219 75.714844 90.601562 C 98.3125 75.878906 104.695312 45.625 89.972656 23.027344 C 75.25 0.429688 45 -5.953125 22.402344 8.769531 Z M 22.402344 8.769531 " clip-rule="nonzero"/></clipPath><clipPath id="da9aaa901d"><rect x="0" width="98" y="0" height="99"/></clipPath><clipPath id="e3389d7ecd"><path d="M 1329.667969 816 L 1396 816 L 1396 882 L 1329.667969 882 Z M 1329.667969 816 " clip-rule="nonzero"/></clipPath><clipPath id="7193f6e942"><path d="M 1374 904 L 1450 904 L 1450 970.519531 L 1374 970.519531 Z M 1374 904 " clip-rule="nonzero"/></clipPath></defs><g transform="matrix(1, 0, 0, 1, 49, 414)"><g clip-path="url(#6c495a1bdb)"><g fill="#e3cbec" fill-opacity="1"><g transform="translate(3.779843, 518.43797)"><g><path d="M 213.28125 -84.671875 C 213.28125 -91.054688 210.382812 -96.253906 204.59375 -100.265625 C 198.8125 -104.285156 191.078125 -107.769531 181.390625 -110.71875 C 171.710938 -113.664062 160.789062 -116.554688 148.625 -119.390625 C 136.457031 -122.234375 123.9375 -125.601562 111.0625 -129.5 C 98.195312 -133.394531 85.679688 -138.296875 73.515625 -144.203125 C 61.347656 -150.109375 50.421875 -157.609375 40.734375 -166.703125 C 31.054688 -175.796875 23.320312 -186.953125 17.53125 -200.171875 C 11.75 -213.398438 8.859375 -229.347656 8.859375 -248.015625 C 8.859375 -266.910156 12.988281 -283.320312 21.25 -297.25 C 29.519531 -311.1875 40.800781 -322.757812 55.09375 -331.96875 C 69.382812 -341.1875 85.679688 -348.097656 103.984375 -352.703125 C 122.285156 -357.304688 141.359375 -359.609375 161.203125 -359.609375 C 172.773438 -359.609375 185.53125 -358.957031 199.46875 -357.65625 C 213.40625 -356.363281 227.34375 -354.117188 241.28125 -350.921875 C 255.21875 -347.734375 268.03125 -343.304688 279.71875 -337.640625 C 291.40625 -331.972656 300.789062 -324.828125 307.875 -316.203125 C 314.96875 -307.585938 318.515625 -297.140625 318.515625 -284.859375 C 318.515625 -269.742188 313.550781 -258.347656 303.625 -250.671875 C 293.707031 -242.992188 281.191406 -239.15625 266.078125 -239.15625 C 253.085938 -239.15625 241.570312 -240.628906 231.53125 -243.578125 C 221.488281 -246.535156 212.507812 -250.195312 204.59375 -254.5625 C 196.6875 -258.925781 189.25 -263.289062 182.28125 -267.65625 C 175.3125 -272.03125 168.519531 -275.691406 161.90625 -278.640625 C 155.300781 -281.597656 148.21875 -283.078125 140.65625 -283.078125 C 136.644531 -283.078125 132.453125 -282.25 128.078125 -280.59375 C 123.710938 -278.945312 121.53125 -275.289062 121.53125 -269.625 C 121.53125 -264.425781 124.476562 -260.054688 130.375 -256.515625 C 136.28125 -252.972656 144.191406 -249.78125 154.109375 -246.9375 C 164.035156 -244.101562 175.140625 -241.210938 187.421875 -238.265625 C 199.703125 -235.316406 212.457031 -231.832031 225.6875 -227.8125 C 238.914062 -223.800781 251.671875 -218.898438 263.953125 -213.109375 C 276.234375 -207.316406 287.332031 -200.171875 297.25 -191.671875 C 307.175781 -183.171875 315.085938 -172.957031 320.984375 -161.03125 C 326.890625 -149.101562 329.84375 -134.867188 329.84375 -118.328125 C 329.84375 -95.660156 325.351562 -76.472656 316.375 -60.765625 C 307.40625 -45.054688 295.1875 -32.359375 279.71875 -22.671875 C 264.25 -12.992188 246.769531 -5.910156 227.28125 -1.421875 C 207.789062 3.066406 187.421875 5.3125 166.171875 5.3125 C 146.328125 5.3125 127.070312 4.128906 108.40625 1.765625 C 89.75 -0.585938 72.976562 -4.597656 58.09375 -10.265625 C 43.21875 -15.941406 31.410156 -23.679688 22.671875 -33.484375 C 13.929688 -43.285156 9.5625 -55.742188 9.5625 -70.859375 C 9.5625 -86.921875 14.34375 -99.613281 23.90625 -108.9375 C 33.476562 -118.269531 46.054688 -122.9375 61.640625 -122.9375 C 72.742188 -122.9375 82.78125 -120.988281 91.75 -117.09375 C 100.726562 -113.195312 109.175781 -108.472656 117.09375 -102.921875 C 125.007812 -97.367188 132.804688 -91.757812 140.484375 -86.09375 C 148.160156 -80.425781 156.128906 -75.644531 164.390625 -71.75 C 172.660156 -67.851562 181.753906 -65.90625 191.671875 -65.90625 C 198.285156 -66.132812 203.539062 -67.84375 207.4375 -71.03125 C 211.332031 -74.21875 213.28125 -78.765625 213.28125 -84.671875 Z M 213.28125 -84.671875 "/></g></g></g><g fill="#e3cbec" fill-opacity="1"><g transform="translate(342.456629, 518.43797)"><g><path d="M 8.859375 -177.15625 C 8.859375 -201.71875 11.632812 -223.328125 17.1875 -241.984375 C 22.738281 -260.640625 30.238281 -276.695312 39.6875 -290.15625 C 49.132812 -303.625 59.644531 -314.785156 71.21875 -323.640625 C 82.789062 -332.503906 94.71875 -339.59375 107 -344.90625 C 119.28125 -350.21875 131.085938 -353.992188 142.421875 -356.234375 C 153.765625 -358.484375 163.6875 -359.609375 172.1875 -359.609375 C 187.539062 -359.847656 199.765625 -359.492188 208.859375 -358.546875 C 217.953125 -357.597656 225.507812 -356.648438 231.53125 -355.703125 C 237.550781 -354.765625 243.515625 -354.296875 249.421875 -354.296875 C 261.703125 -354.296875 271.625 -354.765625 279.1875 -355.703125 C 286.75 -356.648438 293.300781 -357.535156 298.84375 -358.359375 C 304.394531 -359.191406 309.890625 -359.609375 315.328125 -359.609375 C 319.109375 -359.609375 323.535156 -359.132812 328.609375 -358.1875 C 333.691406 -357.25 338.710938 -355.363281 343.671875 -352.53125 C 348.628906 -349.695312 352.757812 -345.679688 356.0625 -340.484375 C 359.375 -335.285156 361.03125 -328.4375 361.03125 -319.9375 C 361.03125 -311.664062 359.789062 -303.039062 357.3125 -294.0625 C 354.832031 -285.09375 352.054688 -275.175781 348.984375 -264.3125 C 345.910156 -253.445312 343.132812 -240.925781 340.65625 -226.75 C 338.175781 -212.582031 336.9375 -196.050781 336.9375 -177.15625 C 336.9375 -160.851562 337.820312 -146.972656 339.59375 -135.515625 C 341.363281 -124.054688 343.609375 -114.132812 346.328125 -105.75 C 349.046875 -97.375 351.757812 -90.054688 354.46875 -83.796875 C 357.1875 -77.535156 359.429688 -71.566406 361.203125 -65.890625 C 362.972656 -60.222656 363.859375 -54.203125 363.859375 -47.828125 C 363.859375 -37.429688 359.84375 -28.21875 351.8125 -20.1875 C 343.78125 -12.164062 333.03125 -5.910156 319.5625 -1.421875 C 306.101562 3.066406 290.988281 5.3125 274.21875 5.3125 C 266.90625 5.3125 261.238281 4.25 257.21875 2.125 C 253.207031 0 249.957031 -2.421875 247.46875 -5.140625 C 244.988281 -7.859375 242.332031 -10.28125 239.5 -12.40625 C 236.664062 -14.53125 232.890625 -15.59375 228.171875 -15.59375 C 222.972656 -15.59375 218.363281 -14.53125 214.34375 -12.40625 C 210.332031 -10.28125 205.785156 -7.859375 200.703125 -5.140625 C 195.628906 -2.421875 189.3125 0 181.75 2.125 C 174.195312 4.25 164.28125 5.3125 152 5.3125 C 132.394531 5.3125 113.910156 0.941406 96.546875 -7.796875 C 79.179688 -16.535156 63.941406 -28.9375 50.828125 -45 C 37.722656 -61.0625 27.453125 -80.3125 20.015625 -102.75 C 12.578125 -125.1875 8.859375 -149.988281 8.859375 -177.15625 Z M 175.015625 -266.078125 C 165.566406 -266.078125 157.945312 -257.925781 152.15625 -241.625 C 146.375 -225.332031 143.484375 -203.84375 143.484375 -177.15625 C 143.484375 -150.695312 146.375 -129.316406 152.15625 -113.015625 C 157.945312 -96.722656 165.566406 -88.578125 175.015625 -88.578125 C 184.460938 -88.578125 192.082031 -96.722656 197.875 -113.015625 C 203.664062 -129.316406 206.5625 -150.695312 206.5625 -177.15625 C 206.5625 -203.84375 203.664062 -225.332031 197.875 -241.625 C 192.082031 -257.925781 184.460938 -266.078125 175.015625 -266.078125 Z M 175.015625 -266.078125 "/></g></g></g><g fill="#e3cbec" fill-opacity="1"><g transform="translate(709.474555, 518.43797)"><g><path d="M 22.671875 -314.96875 C 17.003906 -314.96875 12.398438 -316.738281 8.859375 -320.28125 C 5.316406 -323.820312 3.546875 -328.429688 3.546875 -334.109375 L 3.546875 -335.171875 C 3.546875 -340.835938 5.316406 -345.441406 8.859375 -348.984375 C 12.398438 -352.523438 17.003906 -354.296875 22.671875 -354.296875 L 40.390625 -354.296875 L 40.390625 -393.625 C 40.390625 -408.976562 43.046875 -423.914062 48.359375 -438.4375 C 53.671875 -452.96875 61.640625 -466.019531 72.265625 -477.59375 C 82.898438 -489.164062 96.128906 -498.375 111.953125 -505.21875 C 127.785156 -512.070312 146.210938 -515.5 167.234375 -515.5 C 182.109375 -515.5 197.046875 -513.550781 212.046875 -509.65625 C 227.046875 -505.757812 240.800781 -500.207031 253.3125 -493 C 265.832031 -485.800781 275.875 -477.0625 283.4375 -466.78125 C 291 -456.507812 294.78125 -444.878906 294.78125 -431.890625 C 294.78125 -419.835938 291.351562 -409.144531 284.5 -399.8125 C 277.644531 -390.488281 268.785156 -383.226562 257.921875 -378.03125 C 247.054688 -372.832031 235.601562 -370.234375 223.5625 -370.234375 C 216.945312 -370.234375 211.453125 -371.945312 207.078125 -375.375 C 202.710938 -378.800781 199.171875 -383.050781 196.453125 -388.125 C 193.742188 -393.207031 191.441406 -398.460938 189.546875 -403.890625 C 187.660156 -409.328125 185.769531 -413.9375 183.875 -417.71875 C 179.394531 -427.164062 173.785156 -435.195312 167.046875 -441.8125 C 160.316406 -448.425781 153.171875 -451.734375 145.609375 -451.734375 C 139.710938 -451.734375 134.988281 -449.546875 131.4375 -445.171875 C 127.894531 -440.804688 126.125 -435.550781 126.125 -429.40625 C 126.125 -422.789062 128.015625 -415.523438 131.796875 -407.609375 C 135.578125 -399.703125 140.242188 -391.316406 145.796875 -382.453125 C 151.347656 -373.597656 156.484375 -364.210938 161.203125 -354.296875 L 203.71875 -354.296875 C 209.382812 -354.296875 213.988281 -352.523438 217.53125 -348.984375 C 221.082031 -345.441406 222.859375 -340.835938 222.859375 -335.171875 L 222.859375 -334.109375 C 222.859375 -328.429688 221.082031 -323.820312 217.53125 -320.28125 C 213.988281 -316.738281 209.382812 -314.96875 203.71875 -314.96875 L 175.734375 -314.96875 C 175.734375 -312.375 175.734375 -310.070312 175.734375 -308.0625 C 175.734375 -306.050781 175.734375 -303.984375 175.734375 -301.859375 C 175.734375 -301.859375 175.734375 -298.019531 175.734375 -290.34375 C 175.734375 -282.664062 175.734375 -273.28125 175.734375 -262.1875 C 175.734375 -231.476562 176.5 -205.671875 178.03125 -184.765625 C 179.570312 -163.859375 181.519531 -146.554688 183.875 -132.859375 C 186.238281 -119.160156 188.835938 -107.820312 191.671875 -98.84375 C 194.503906 -89.875 197.160156 -82.082031 199.640625 -75.46875 C 202.117188 -68.851562 204.125 -62.238281 205.65625 -55.625 C 207.195312 -49.007812 207.96875 -40.976562 207.96875 -31.53125 C 207.96875 -23.03125 205.898438 -16.59375 201.765625 -12.21875 C 197.640625 -7.851562 192.5625 -4.785156 186.53125 -3.015625 C 180.507812 -1.242188 174.546875 -0.296875 168.640625 -0.171875 C 162.734375 -0.0546875 157.894531 0 154.125 0 L 62.359375 0 C 58.578125 0 53.734375 -0.0546875 47.828125 -0.171875 C 41.921875 -0.296875 35.957031 -1.242188 29.9375 -3.015625 C 23.914062 -4.785156 18.835938 -7.851562 14.703125 -12.21875 C 10.566406 -16.59375 8.5 -23.03125 8.5 -31.53125 C 8.5 -40.976562 9.265625 -49.007812 10.796875 -55.625 C 12.335938 -62.238281 14.347656 -68.851562 16.828125 -75.46875 C 19.304688 -82.082031 21.90625 -89.875 24.625 -98.84375 C 27.34375 -107.820312 29.941406 -119.160156 32.421875 -132.859375 C 34.898438 -146.554688 36.90625 -163.859375 38.4375 -184.765625 C 39.976562 -205.671875 40.75 -231.476562 40.75 -262.1875 L 40.390625 -314.96875 Z M 22.671875 -314.96875 "/></g></g></g><g fill="#e3cbec" fill-opacity="1"><g transform="translate(1007.765223, 518.43797)"><g><path d="M 8.859375 -177.15625 C 8.859375 -199.59375 12.695312 -221.675781 20.375 -243.40625 C 28.050781 -265.132812 39.742188 -284.738281 55.453125 -302.21875 C 71.160156 -319.695312 91 -333.628906 114.96875 -344.015625 C 138.945312 -354.410156 167.347656 -359.609375 200.171875 -359.609375 C 218.359375 -359.609375 235.835938 -357.304688 252.609375 -352.703125 C 269.378906 -348.097656 284.316406 -341.128906 297.421875 -331.796875 C 310.535156 -322.460938 320.929688 -310.828125 328.609375 -296.890625 C 336.285156 -282.960938 340.125 -266.671875 340.125 -248.015625 C 340.125 -227.460938 336.992188 -209.625 330.734375 -194.5 C 324.472656 -179.382812 316.085938 -166.628906 305.578125 -156.234375 C 295.066406 -145.847656 283.429688 -137.289062 270.671875 -130.5625 C 257.921875 -123.832031 245.050781 -118.457031 232.0625 -114.4375 C 219.78125 -110.65625 208.972656 -108.882812 199.640625 -109.125 C 190.316406 -109.363281 182.9375 -109.484375 177.5 -109.484375 C 174.425781 -109.484375 172.125 -109.1875 170.59375 -108.59375 C 169.0625 -108 168.296875 -106.640625 168.296875 -104.515625 C 168.296875 -100.734375 170.359375 -97.660156 174.484375 -95.296875 C 178.617188 -92.941406 183.578125 -91.234375 189.359375 -90.171875 C 195.148438 -89.109375 200.410156 -88.578125 205.140625 -88.578125 C 217.890625 -88.578125 228.632812 -90.171875 237.375 -93.359375 C 246.113281 -96.546875 253.789062 -100.144531 260.40625 -104.15625 C 267.019531 -108.175781 273.394531 -111.78125 279.53125 -114.96875 C 285.675781 -118.15625 292.410156 -119.75 299.734375 -119.75 C 307.765625 -119.75 314.671875 -117.800781 320.453125 -113.90625 C 326.242188 -110.007812 330.96875 -105.046875 334.625 -99.015625 C 338.289062 -92.992188 341.007812 -86.796875 342.78125 -80.421875 C 344.550781 -74.046875 345.4375 -68.257812 345.4375 -63.0625 C 345.4375 -52.4375 340.296875 -41.867188 330.015625 -31.359375 C 319.742188 -20.847656 303.921875 -12.109375 282.546875 -5.140625 C 261.171875 1.824219 233.710938 5.3125 200.171875 5.3125 C 168.992188 5.3125 141.535156 0.175781 117.796875 -10.09375 C 94.066406 -20.375 74.109375 -34.253906 57.921875 -51.734375 C 41.742188 -69.210938 29.519531 -88.816406 21.25 -110.546875 C 12.988281 -132.273438 8.859375 -154.476562 8.859375 -177.15625 Z M 145.609375 -214.703125 C 139.710938 -199.585938 137.585938 -187.363281 139.234375 -178.03125 C 140.890625 -168.707031 146.085938 -164.046875 154.828125 -164.046875 C 163.804688 -164.046875 172.84375 -168.707031 181.9375 -178.03125 C 191.03125 -187.363281 198.523438 -199.585938 204.421875 -214.703125 C 210.566406 -230.054688 212.753906 -242.394531 210.984375 -251.71875 C 209.210938 -261.050781 203.835938 -265.71875 194.859375 -265.71875 C 186.117188 -265.71875 177.257812 -261.050781 168.28125 -251.71875 C 159.3125 -242.394531 151.753906 -230.054688 145.609375 -214.703125 Z M 145.609375 -214.703125 "/></g></g></g></g></g><g clip-path="url(#d64cc9e0cd)"><g clip-path="url(#cf378546b1)"><g transform="matrix(1, 0, 0, 1, 1280, 516)"><g clip-path="url(#8061540850)"><g clip-path="url(#d718d4d026)"><g clip-path="url(#59d3481e71)"><path fill="#ffffff" d="M 0.472656 0.785156 L 139.371094 0.785156 L 139.371094 139.6875 L 0.472656 139.6875 Z M 0.472656 0.785156 " fill-opacity="1" fill-rule="nonzero"/></g></g></g></g></g></g><g clip-path="url(#5126621240)"><g clip-path="url(#24c124d96a)"><g clip-path="url(#a551ce5742)"><g transform="matrix(1, 0, 0, 1, 1334, 606)"><g clip-path="url(#da9aaa901d)"><g clip-path="url(#ef62d35af4)"><g clip-path="url(#095cd97803)"><g clip-path="url(#b7677df70b)"><path fill="#ffffff" d="M -18.511719 35.425781 L 63.316406 -17.886719 L 116.632812 63.941406 L 34.800781 117.257812 Z M -18.511719 35.425781 " fill-opacity="1" fill-rule="nonzero"/></g></g></g></g></g></g></g></g><g clip-path="url(#e3389d7ecd)"><path fill="#e3cbec" d="M 1329.664062 863.816406 C 1329.664062 863.816406 1336.59375 897.609375 1387.40625 871.894531 C 1387.40625 871.894531 1409.480469 855.652344 1379.765625 834.144531 C 1379.765625 834.144531 1340.238281 777.824219 1329.664062 863.816406 Z M 1329.664062 863.816406 " fill-opacity="1" fill-rule="nonzero"/></g><path fill="#e3cbec" d="M 1425.375 847.738281 C 1425.375 847.738281 1428.757812 864.28125 1453.667969 851.683594 C 1453.667969 851.683594 1464.496094 843.714844 1449.941406 833.171875 C 1449.941406 833.171875 1430.566406 805.59375 1425.375 847.738281 Z M 1425.375 847.738281 " fill-opacity="1" fill-rule="nonzero"/><g clip-path="url(#7193f6e942)"><path fill="#e3cbec" d="M 1411.917969 904.90625 C 1411.917969 904.90625 1355.066406 923.378906 1382.394531 943.410156 C 1409.671875 963.414062 1423.40625 970.480469 1423.40625 970.480469 C 1423.40625 970.480469 1468.921875 907.136719 1440.398438 906.027344 C 1411.917969 904.90625 1411.917969 904.90625 1411.917969 904.90625 Z M 1411.917969 904.90625 " fill-opacity="1" fill-rule="nonzero"/></g></svg>