<svg version="1.0" preserveAspectRatio="xMidYMid meet" viewBox="106.7625 413.3999815348 1308 479.99997856000005" zoomAndPan="magnify" xmlns:xlink="http://www.w3.org/1999/xlink" xmlns="http://www.w3.org/2000/svg" style="max-height: 500px" width="1308" height="479.99997856000005"><defs><g/><clipPath id="90a47bfd2e"><path clip-rule="nonzero" d="M 1225.011719 526.425781 L 1334.328125 526.425781 L 1334.328125 635.742188 L 1225.011719 635.742188 Z M 1225.011719 526.425781"/></clipPath><clipPath id="9bddb00665"><path clip-rule="nonzero" d="M 1279.671875 526.425781 C 1249.484375 526.425781 1225.011719 550.898438 1225.011719 581.082031 C 1225.011719 611.269531 1249.484375 635.742188 1279.671875 635.742188 C 1309.855469 635.742188 1334.328125 611.269531 1334.328125 581.082031 C 1334.328125 550.898438 1309.855469 526.425781 1279.671875 526.425781 Z M 1279.671875 526.425781"/></clipPath><clipPath id="1508263d92"><path clip-rule="nonzero" d="M 0.0117188 0.425781 L 109.328125 0.425781 L 109.328125 109.742188 L 0.0117188 109.742188 Z M 0.0117188 0.425781"/></clipPath><clipPath id="04f8bf0a01"><path clip-rule="nonzero" d="M 54.671875 0.425781 C 24.484375 0.425781 0.0117188 24.898438 0.0117188 55.082031 C 0.0117188 85.269531 24.484375 109.742188 54.671875 109.742188 C 84.855469 109.742188 109.328125 85.269531 109.328125 55.082031 C 109.328125 24.898438 84.855469 0.425781 54.671875 0.425781 Z M 54.671875 0.425781"/></clipPath><clipPath id="ab4047f26f"><rect height="110" y="0" width="110" x="0"/></clipPath><clipPath id="13c9b24e24"><path clip-rule="nonzero" d="M 1267 597 L 1345 597 L 1345 675 L 1267 675 Z M 1267 597"/></clipPath><clipPath id="0ec63eff7f"><path clip-rule="nonzero" d="M 1252.570312 624.519531 L 1316.96875 582.5625 L 1358.925781 646.960938 L 1294.527344 688.921875 Z M 1252.570312 624.519531"/></clipPath><clipPath id="0af997e956"><path clip-rule="nonzero" d="M 1284.769531 603.539062 C 1266.984375 615.125 1261.960938 638.9375 1273.546875 656.71875 C 1285.132812 674.503906 1308.945312 679.527344 1326.726562 667.941406 C 1344.511719 656.355469 1349.535156 632.542969 1337.949219 614.761719 C 1326.363281 596.976562 1302.550781 591.953125 1284.769531 603.539062 Z M 1284.769531 603.539062"/></clipPath><clipPath id="a67aeef75d"><path clip-rule="nonzero" d="M 0 0 L 78 0 L 78 78 L 0 78 Z M 0 0"/></clipPath><clipPath id="bf0682b83c"><path clip-rule="nonzero" d="M -14.429688 27.519531 L 49.96875 -14.4375 L 91.925781 49.960938 L 27.527344 91.921875 Z M -14.429688 27.519531"/></clipPath><clipPath id="4d8e7b4006"><path clip-rule="nonzero" d="M 17.769531 6.539062 C -0.015625 18.125 -5.039062 41.9375 6.546875 59.71875 C 18.132812 77.503906 41.945312 82.527344 59.726562 70.941406 C 77.511719 59.355469 82.535156 35.542969 70.949219 17.761719 C 59.363281 -0.0234375 35.550781 -5.046875 17.769531 6.539062 Z M 17.769531 6.539062"/></clipPath><clipPath id="803cfb12e7"><rect height="78" y="0" width="78" x="0"/></clipPath><clipPath id="c3129024c1"><path clip-rule="nonzero" d="M 1263.730469 761 L 1316 761 L 1316 814 L 1263.730469 814 Z M 1263.730469 761"/></clipPath><clipPath id="ed8d8d58d4"><path clip-rule="nonzero" d="M 1299 831 L 1359 831 L 1359 883.320312 L 1299 883.320312 Z M 1299 831"/></clipPath></defs><rect fill-opacity="1" height="1799.99992" y="-149.999993" fill="#ffffff" width="1800" x="-150"/><rect fill-opacity="1" height="1799.99992" y="-149.999993" fill="#ffffff" width="1800" x="-150"/><g fill-opacity="1" fill="#e3cbec"><g transform="translate(147.360724, 853.648898)"><g><path d="M 167.859375 -66.640625 C 167.859375 -71.660156 165.582031 -75.75 161.03125 -78.90625 C 156.476562 -82.070312 150.390625 -84.816406 142.765625 -87.140625 C 135.140625 -89.460938 126.539062 -91.738281 116.96875 -93.96875 C 107.394531 -96.195312 97.539062 -98.84375 87.40625 -101.90625 C 77.28125 -104.976562 67.429688 -108.835938 57.859375 -113.484375 C 48.285156 -118.128906 39.6875 -124.03125 32.0625 -131.1875 C 24.445312 -138.351562 18.359375 -147.140625 13.796875 -157.546875 C 9.242188 -167.953125 6.96875 -180.5 6.96875 -195.1875 C 6.96875 -210.0625 10.21875 -222.984375 16.71875 -233.953125 C 23.226562 -244.921875 32.109375 -254.03125 43.359375 -261.28125 C 54.609375 -268.53125 67.4375 -273.96875 81.84375 -277.59375 C 96.25 -281.21875 111.257812 -283.03125 126.875 -283.03125 C 135.976562 -283.03125 146.015625 -282.515625 156.984375 -281.484375 C 167.953125 -280.460938 178.921875 -278.695312 189.890625 -276.1875 C 200.859375 -273.6875 210.941406 -270.203125 220.140625 -265.734375 C 229.347656 -261.273438 236.738281 -255.648438 242.3125 -248.859375 C 247.894531 -242.078125 250.6875 -233.851562 250.6875 -224.1875 C 250.6875 -212.289062 246.78125 -203.320312 238.96875 -197.28125 C 231.15625 -191.238281 221.300781 -188.21875 209.40625 -188.21875 C 199.1875 -188.21875 190.125 -189.378906 182.21875 -191.703125 C 174.320312 -194.023438 167.257812 -196.90625 161.03125 -200.34375 C 154.800781 -203.78125 148.941406 -207.21875 143.453125 -210.65625 C 137.972656 -214.101562 132.628906 -216.988281 127.421875 -219.3125 C 122.222656 -221.632812 116.648438 -222.796875 110.703125 -222.796875 C 107.535156 -222.796875 104.234375 -222.144531 100.796875 -220.84375 C 97.359375 -219.539062 95.640625 -216.660156 95.640625 -212.203125 C 95.640625 -208.109375 97.960938 -204.664062 102.609375 -201.875 C 107.253906 -199.09375 113.484375 -196.585938 121.296875 -194.359375 C 129.109375 -192.128906 137.847656 -189.847656 147.515625 -187.515625 C 157.179688 -185.191406 167.21875 -182.453125 177.625 -179.296875 C 188.03125 -176.140625 198.066406 -172.28125 207.734375 -167.71875 C 217.398438 -163.164062 226.132812 -157.539062 233.9375 -150.84375 C 241.75 -144.15625 247.976562 -136.117188 252.625 -126.734375 C 257.28125 -117.347656 259.609375 -106.148438 259.609375 -93.140625 C 259.609375 -75.285156 256.070312 -60.175781 249 -47.8125 C 241.9375 -35.457031 232.316406 -25.46875 220.140625 -17.84375 C 207.960938 -10.21875 194.207031 -4.640625 178.875 -1.109375 C 163.539062 2.421875 147.507812 4.1875 130.78125 4.1875 C 115.164062 4.1875 100.015625 3.253906 85.328125 1.390625 C 70.640625 -0.460938 57.4375 -3.617188 45.71875 -8.078125 C 34.007812 -12.546875 24.71875 -18.632812 17.84375 -26.34375 C 10.96875 -34.0625 7.53125 -43.867188 7.53125 -55.765625 C 7.53125 -68.410156 11.289062 -78.40625 18.8125 -85.75 C 26.34375 -93.09375 36.242188 -96.765625 48.515625 -96.765625 C 57.253906 -96.765625 65.15625 -95.226562 72.21875 -92.15625 C 79.28125 -89.09375 85.925781 -85.375 92.15625 -81 C 98.382812 -76.632812 104.519531 -72.21875 110.5625 -67.75 C 116.601562 -63.289062 122.875 -59.523438 129.375 -56.453125 C 135.882812 -53.390625 143.046875 -51.859375 150.859375 -51.859375 C 156.054688 -52.046875 160.1875 -53.394531 163.25 -55.90625 C 166.320312 -58.414062 167.859375 -61.992188 167.859375 -66.640625 Z M 167.859375 -66.640625"/></g></g></g><g fill-opacity="1" fill="#e3cbec"><g transform="translate(450.462046, 853.648898)"><g><path d="M 6.96875 -139.421875 C 6.96875 -158.753906 9.148438 -175.765625 13.515625 -190.453125 C 17.890625 -205.140625 23.796875 -217.78125 31.234375 -228.375 C 38.671875 -238.96875 46.941406 -247.75 56.046875 -254.71875 C 65.148438 -261.695312 74.535156 -267.273438 84.203125 -271.453125 C 93.867188 -275.640625 103.164062 -278.613281 112.09375 -280.375 C 121.019531 -282.144531 128.828125 -283.03125 135.515625 -283.03125 C 147.597656 -283.21875 157.21875 -282.9375 164.375 -282.1875 C 171.53125 -281.445312 177.476562 -280.703125 182.21875 -279.953125 C 186.957031 -279.210938 191.65625 -278.84375 196.3125 -278.84375 C 205.976562 -278.84375 213.785156 -279.210938 219.734375 -279.953125 C 225.679688 -280.703125 230.835938 -281.398438 235.203125 -282.046875 C 239.566406 -282.703125 243.890625 -283.03125 248.171875 -283.03125 C 251.140625 -283.03125 254.625 -282.65625 258.625 -281.90625 C 262.625 -281.164062 266.570312 -279.679688 270.46875 -277.453125 C 274.375 -275.222656 277.628906 -272.0625 280.234375 -267.96875 C 282.835938 -263.875 284.140625 -258.484375 284.140625 -251.796875 C 284.140625 -245.285156 283.160156 -238.5 281.203125 -231.4375 C 279.253906 -224.375 277.070312 -216.566406 274.65625 -208.015625 C 272.238281 -199.460938 270.054688 -189.609375 268.109375 -178.453125 C 266.160156 -167.304688 265.1875 -154.296875 265.1875 -139.421875 C 265.1875 -126.597656 265.878906 -115.675781 267.265625 -106.65625 C 268.660156 -97.644531 270.425781 -89.835938 272.5625 -83.234375 C 274.707031 -76.628906 276.847656 -70.863281 278.984375 -65.9375 C 281.117188 -61.019531 282.882812 -56.328125 284.28125 -51.859375 C 285.675781 -47.398438 286.375 -42.660156 286.375 -37.640625 C 286.375 -29.460938 283.210938 -22.210938 276.890625 -15.890625 C 270.566406 -9.566406 262.109375 -4.640625 251.515625 -1.109375 C 240.921875 2.421875 229.023438 4.1875 215.828125 4.1875 C 210.066406 4.1875 205.601562 3.347656 202.4375 1.671875 C 199.28125 -0.00390625 196.722656 -1.910156 194.765625 -4.046875 C 192.816406 -6.179688 190.726562 -8.082031 188.5 -9.75 C 186.269531 -11.425781 183.296875 -12.265625 179.578125 -12.265625 C 175.484375 -12.265625 171.851562 -11.425781 168.6875 -9.75 C 165.53125 -8.082031 161.953125 -6.179688 157.953125 -4.046875 C 153.960938 -1.910156 148.992188 -0.00390625 143.046875 1.671875 C 137.097656 3.347656 129.289062 4.1875 119.625 4.1875 C 104.195312 4.1875 89.648438 0.746094 75.984375 -6.125 C 62.316406 -13.007812 50.320312 -22.769531 40 -35.40625 C 29.6875 -48.050781 21.601562 -63.203125 15.75 -80.859375 C 9.894531 -98.523438 6.96875 -118.046875 6.96875 -139.421875 Z M 137.75 -209.40625 C 130.3125 -209.40625 124.316406 -202.992188 119.765625 -190.171875 C 115.210938 -177.347656 112.9375 -160.429688 112.9375 -139.421875 C 112.9375 -118.597656 115.210938 -101.769531 119.765625 -88.9375 C 124.316406 -76.113281 130.3125 -69.703125 137.75 -69.703125 C 145.1875 -69.703125 151.179688 -76.113281 155.734375 -88.9375 C 160.285156 -101.769531 162.5625 -118.597656 162.5625 -139.421875 C 162.5625 -160.429688 160.285156 -177.347656 155.734375 -190.171875 C 151.179688 -202.992188 145.1875 -209.40625 137.75 -209.40625 Z M 137.75 -209.40625"/></g></g></g><g fill-opacity="1" fill="#e3cbec"><g transform="translate(775.870743, 853.648898)"><g><path d="M 17.84375 -247.890625 C 13.382812 -247.890625 9.757812 -249.28125 6.96875 -252.0625 C 4.175781 -254.851562 2.78125 -258.484375 2.78125 -262.953125 L 2.78125 -263.78125 C 2.78125 -268.25 4.175781 -271.875 6.96875 -274.65625 C 9.757812 -277.445312 13.382812 -278.84375 17.84375 -278.84375 L 31.78125 -278.84375 L 31.78125 -309.796875 C 31.78125 -321.878906 33.875 -333.632812 38.0625 -345.0625 C 42.25 -356.5 48.523438 -366.769531 56.890625 -375.875 C 65.253906 -384.988281 75.660156 -392.238281 88.109375 -397.625 C 100.566406 -403.019531 115.066406 -405.71875 131.609375 -405.71875 C 143.328125 -405.71875 155.085938 -404.179688 166.890625 -401.109375 C 178.691406 -398.046875 189.519531 -393.675781 199.375 -388 C 209.226562 -382.332031 217.128906 -375.457031 223.078125 -367.375 C 229.023438 -359.289062 232 -350.132812 232 -339.90625 C 232 -330.425781 229.300781 -322.015625 223.90625 -314.671875 C 218.519531 -307.328125 211.550781 -301.609375 203 -297.515625 C 194.445312 -293.429688 185.429688 -291.390625 175.953125 -291.390625 C 170.742188 -291.390625 166.421875 -292.738281 162.984375 -295.4375 C 159.546875 -298.132812 156.753906 -301.476562 154.609375 -305.46875 C 152.472656 -309.46875 150.660156 -313.601562 149.171875 -317.875 C 147.691406 -322.15625 146.207031 -325.78125 144.71875 -328.75 C 141.1875 -336.1875 136.769531 -342.507812 131.46875 -347.71875 C 126.175781 -352.925781 120.554688 -355.53125 114.609375 -355.53125 C 109.960938 -355.53125 106.242188 -353.804688 103.453125 -350.359375 C 100.660156 -346.921875 99.265625 -342.785156 99.265625 -337.953125 C 99.265625 -332.753906 100.75 -327.039062 103.71875 -320.8125 C 106.695312 -314.582031 110.367188 -307.984375 114.734375 -301.015625 C 119.109375 -294.046875 123.15625 -286.65625 126.875 -278.84375 L 160.328125 -278.84375 C 164.796875 -278.84375 168.421875 -277.445312 171.203125 -274.65625 C 173.992188 -271.875 175.390625 -268.25 175.390625 -263.78125 L 175.390625 -262.953125 C 175.390625 -258.484375 173.992188 -254.851562 171.203125 -252.0625 C 168.421875 -249.28125 164.796875 -247.890625 160.328125 -247.890625 L 138.3125 -247.890625 C 138.3125 -245.847656 138.3125 -244.035156 138.3125 -242.453125 C 138.3125 -240.867188 138.3125 -239.242188 138.3125 -237.578125 C 138.3125 -237.578125 138.3125 -234.554688 138.3125 -228.515625 C 138.3125 -222.472656 138.3125 -215.082031 138.3125 -206.34375 C 138.3125 -182.175781 138.914062 -161.863281 140.125 -145.40625 C 141.332031 -128.957031 142.863281 -115.34375 144.71875 -104.5625 C 146.582031 -93.78125 148.628906 -84.859375 150.859375 -77.796875 C 153.085938 -70.734375 155.175781 -64.597656 157.125 -59.390625 C 159.082031 -54.191406 160.664062 -48.988281 161.875 -43.78125 C 163.082031 -38.570312 163.6875 -32.25 163.6875 -24.8125 C 163.6875 -18.125 162.054688 -13.0625 158.796875 -9.625 C 155.546875 -6.1875 151.550781 -3.769531 146.8125 -2.375 C 142.070312 -0.976562 137.378906 -0.234375 132.734375 -0.140625 C 128.085938 -0.046875 124.273438 0 121.296875 0 L 49.078125 0 C 46.097656 0 42.285156 -0.046875 37.640625 -0.140625 C 32.992188 -0.234375 28.300781 -0.976562 23.5625 -2.375 C 18.820312 -3.769531 14.820312 -6.1875 11.5625 -9.625 C 8.3125 -13.0625 6.6875 -18.125 6.6875 -24.8125 C 6.6875 -32.25 7.289062 -38.570312 8.5 -43.78125 C 9.707031 -48.988281 11.285156 -54.191406 13.234375 -59.390625 C 15.191406 -64.597656 17.238281 -70.734375 19.375 -77.796875 C 21.519531 -84.859375 23.566406 -93.78125 25.515625 -104.5625 C 27.460938 -115.34375 29.039062 -128.957031 30.25 -145.40625 C 31.457031 -161.863281 32.0625 -182.175781 32.0625 -206.34375 L 31.78125 -247.890625 Z M 17.84375 -247.890625"/></g></g></g><g fill-opacity="1" fill="#e3cbec"><g transform="translate(1047.184134, 853.648898)"><g><path d="M 6.96875 -139.421875 C 6.96875 -157.078125 9.988281 -174.457031 16.03125 -191.5625 C 22.070312 -208.664062 31.273438 -224.09375 43.640625 -237.84375 C 56.003906 -251.601562 71.617188 -262.570312 90.484375 -270.75 C 109.347656 -278.9375 131.703125 -283.03125 157.546875 -283.03125 C 171.859375 -283.03125 185.613281 -281.21875 198.8125 -277.59375 C 212.007812 -273.96875 223.765625 -268.484375 234.078125 -261.140625 C 244.398438 -253.796875 252.582031 -244.640625 258.625 -233.671875 C 264.664062 -222.703125 267.6875 -209.875 267.6875 -195.1875 C 267.6875 -179.019531 265.222656 -164.984375 260.296875 -153.078125 C 255.367188 -141.179688 248.769531 -131.144531 240.5 -122.96875 C 232.226562 -114.789062 223.070312 -108.050781 213.03125 -102.75 C 203 -97.457031 192.867188 -93.226562 182.640625 -90.0625 C 172.972656 -87.09375 164.46875 -85.695312 157.125 -85.875 C 149.78125 -86.0625 143.972656 -86.15625 139.703125 -86.15625 C 137.285156 -86.15625 135.472656 -85.921875 134.265625 -85.453125 C 133.054688 -84.992188 132.453125 -83.929688 132.453125 -82.265625 C 132.453125 -79.285156 134.078125 -76.863281 137.328125 -75 C 140.578125 -73.144531 144.476562 -71.796875 149.03125 -70.953125 C 153.59375 -70.117188 157.734375 -69.703125 161.453125 -69.703125 C 171.492188 -69.703125 179.953125 -70.957031 186.828125 -73.46875 C 193.703125 -75.976562 199.738281 -78.8125 204.9375 -81.96875 C 210.144531 -85.132812 215.164062 -87.972656 220 -90.484375 C 224.832031 -92.992188 230.132812 -94.25 235.90625 -94.25 C 242.21875 -94.25 247.648438 -92.710938 252.203125 -89.640625 C 256.765625 -86.578125 260.484375 -82.675781 263.359375 -77.9375 C 266.242188 -73.195312 268.382812 -68.316406 269.78125 -63.296875 C 271.175781 -58.273438 271.875 -53.722656 271.875 -49.640625 C 271.875 -41.273438 267.828125 -32.953125 259.734375 -24.671875 C 251.648438 -16.398438 239.195312 -9.519531 222.375 -4.03125 C 205.550781 1.445312 183.941406 4.1875 157.546875 4.1875 C 133.003906 4.1875 111.390625 0.144531 92.703125 -7.9375 C 74.023438 -16.03125 58.316406 -26.953125 45.578125 -40.703125 C 32.847656 -54.460938 23.226562 -69.894531 16.71875 -87 C 10.21875 -104.101562 6.96875 -121.578125 6.96875 -139.421875 Z M 114.609375 -168.984375 C 109.960938 -157.085938 108.285156 -147.46875 109.578125 -140.125 C 110.878906 -132.78125 114.972656 -129.109375 121.859375 -129.109375 C 128.921875 -129.109375 136.03125 -132.78125 143.1875 -140.125 C 150.34375 -147.46875 156.242188 -157.085938 160.890625 -168.984375 C 165.722656 -181.066406 167.441406 -190.773438 166.046875 -198.109375 C 164.648438 -205.453125 160.421875 -209.125 153.359375 -209.125 C 146.484375 -209.125 139.515625 -205.453125 132.453125 -198.109375 C 125.390625 -190.773438 119.441406 -181.066406 114.609375 -168.984375 Z M 114.609375 -168.984375"/></g></g></g><g clip-path="url(#90a47bfd2e)"><g clip-path="url(#9bddb00665)"><g transform="matrix(1, 0, 0, 1, 1225, 526)"><g clip-path="url(#ab4047f26f)"><g clip-path="url(#1508263d92)"><g clip-path="url(#04f8bf0a01)"><path fill-rule="nonzero" fill-opacity="1" d="M 0.0117188 0.425781 L 109.328125 0.425781 L 109.328125 109.742188 L 0.0117188 109.742188 Z M 0.0117188 0.425781" fill="#ffffff"/></g></g></g></g></g></g><g clip-path="url(#13c9b24e24)"><g clip-path="url(#0ec63eff7f)"><g clip-path="url(#0af997e956)"><g transform="matrix(1, 0, 0, 1, 1267, 597)"><g clip-path="url(#803cfb12e7)"><g clip-path="url(#a67aeef75d)"><g clip-path="url(#bf0682b83c)"><g clip-path="url(#4d8e7b4006)"><path fill-rule="nonzero" fill-opacity="1" d="M -14.429688 27.519531 L 49.96875 -14.4375 L 91.925781 49.960938 L 27.527344 91.921875 Z M -14.429688 27.519531" fill="#ffffff"/></g></g></g></g></g></g></g></g><g clip-path="url(#c3129024c1)"><path fill-rule="nonzero" fill-opacity="1" d="M 1263.726562 799.535156 C 1263.726562 799.535156 1269.179688 826.128906 1309.171875 805.894531 C 1309.171875 805.894531 1326.542969 793.109375 1303.15625 776.183594 C 1303.15625 776.183594 1272.046875 731.859375 1263.726562 799.535156 Z M 1263.726562 799.535156" fill="#e3cbec"/></g><path fill-rule="nonzero" fill-opacity="1" d="M 1339.054688 786.882812 C 1339.054688 786.882812 1341.714844 799.902344 1361.316406 789.988281 C 1361.316406 789.988281 1369.839844 783.714844 1358.386719 775.417969 C 1358.386719 775.417969 1343.136719 753.714844 1339.054688 786.882812 Z M 1339.054688 786.882812" fill="#e3cbec"/><g clip-path="url(#ed8d8d58d4)"><path fill-rule="nonzero" fill-opacity="1" d="M 1328.460938 831.875 C 1328.460938 831.875 1283.71875 846.414062 1305.226562 862.175781 C 1326.695312 877.917969 1337.503906 883.480469 1337.503906 883.480469 C 1337.503906 883.480469 1373.324219 833.628906 1350.875 832.757812 C 1328.460938 831.875 1328.460938 831.875 1328.460938 831.875 Z M 1328.460938 831.875" fill="#e3cbec"/></g></svg>