<svg xmlns="http://www.w3.org/2000/svg" xmlns:xlink="http://www.w3.org/1999/xlink" zoomAndPan="magnify" preserveAspectRatio="xMidYMid meet" version="1.0" viewBox="171.22 56.26 870.34 870.34"><defs><g/><clipPath id="e2252e4100"><path d="M 226.984375 374.332031 L 932 374.332031 L 932 887.59375 L 226.984375 887.59375 Z M 226.984375 374.332031 " clip-rule="nonzero"/></clipPath><clipPath id="fc9564be92"><path d="M 578.996094 374.332031 C 384.585938 374.332031 226.984375 489.230469 226.984375 630.960938 C 226.984375 772.695312 384.585938 887.59375 578.996094 887.59375 C 773.410156 887.59375 931.007812 772.695312 931.007812 630.960938 C 931.007812 489.230469 773.410156 374.332031 578.996094 374.332031 Z M 578.996094 374.332031 " clip-rule="nonzero"/></clipPath><clipPath id="3f39762572"><path d="M 0.984375 0.332031 L 705 0.332031 L 705 513.59375 L 0.984375 513.59375 Z M 0.984375 0.332031 " clip-rule="nonzero"/></clipPath><clipPath id="696af6e57e"><path d="M 352.996094 0.332031 C 158.585938 0.332031 0.984375 115.230469 0.984375 256.960938 C 0.984375 398.695312 158.585938 513.59375 352.996094 513.59375 C 547.410156 513.59375 705.007812 398.695312 705.007812 256.960938 C 705.007812 115.230469 547.410156 0.332031 352.996094 0.332031 Z M 352.996094 0.332031 " clip-rule="nonzero"/></clipPath><clipPath id="9489edc0dc"><rect x="0" width="706" y="0" height="514"/></clipPath><clipPath id="f70254a0e1"><path d="M 278.070312 136.851562 L 649.203125 136.851562 L 649.203125 651 L 278.070312 651 Z M 278.070312 136.851562 " clip-rule="nonzero"/></clipPath><clipPath id="66f9e94dfb"><path d="M 463.636719 136.851562 C 361.152344 136.851562 278.070312 251.75 278.070312 393.484375 C 278.070312 535.21875 361.152344 650.117188 463.636719 650.117188 C 566.125 650.117188 649.203125 535.21875 649.203125 393.484375 C 649.203125 251.75 566.125 136.851562 463.636719 136.851562 Z M 463.636719 136.851562 " clip-rule="nonzero"/></clipPath><clipPath id="b701d23899"><path d="M 0.0703125 0.851562 L 371.203125 0.851562 L 371.203125 514.160156 L 0.0703125 514.160156 Z M 0.0703125 0.851562 " clip-rule="nonzero"/></clipPath><clipPath id="41f0ec1e2c"><path d="M 185.636719 0.851562 C 83.152344 0.851562 0.0703125 115.75 0.0703125 257.484375 C 0.0703125 399.21875 83.152344 514.117188 185.636719 514.117188 C 288.125 514.117188 371.203125 399.21875 371.203125 257.484375 C 371.203125 115.75 288.125 0.851562 185.636719 0.851562 Z M 185.636719 0.851562 " clip-rule="nonzero"/></clipPath><clipPath id="f1b125f6ec"><rect x="0" width="372" y="0" height="515"/></clipPath><clipPath id="90ef37c7d8"><rect x="0" width="523" y="0" height="486"/></clipPath><clipPath id="9816576c18"><path d="M 865.214844 747 L 917 747 L 917 800 L 865.214844 800 Z M 865.214844 747 " clip-rule="nonzero"/></clipPath><clipPath id="d22f3cde4f"><path d="M 900 817 L 960 817 L 960 869.355469 L 900 869.355469 Z M 900 817 " clip-rule="nonzero"/></clipPath><clipPath id="f82318e2d8"><rect x="0" width="566" y="0" height="481"/></clipPath></defs><path fill="#1f4229" d="M 695.128906 188.070312 C 685.472656 226.359375 705.300781 266.863281 742.941406 282.0625 C 755.5625 287.164062 768.722656 288.828125 781.375 287.492188 C 797.449219 309.695312 818.859375 328.386719 844.675781 341.40625 C 848.09375 369.46875 866.261719 394.871094 894.328125 406.214844 C 915.660156 414.832031 938.523438 413.632812 957.90625 404.738281 C 965.671875 424.601562 981.28125 441.347656 1002.617188 449.964844 C 1014.90625 454.929688 1027.707031 456.636719 1040.054688 455.488281 C 1045.550781 521.175781 1036.148438 589.109375 1009.769531 654.402344 C 919.761719 877.179688 666.199219 984.8125 443.417969 894.800781 C 220.640625 804.792969 113.007812 551.230469 203.019531 328.453125 C 274.875 150.601562 450.96875 46.140625 632.421875 57.03125 C 631.261719 107.816406 654.433594 156.835938 695.128906 188.070312 Z M 485.90625 371.207031 C 517.980469 374.578125 546.71875 351.308594 550.089844 319.234375 C 553.460938 287.160156 530.191406 258.421875 498.117188 255.054688 C 466.042969 251.679688 437.304688 274.949219 433.933594 307.023438 C 430.5625 339.101562 453.832031 367.835938 485.90625 371.207031 Z M 744.792969 547.382812 C 716.867188 563.511719 707.296875 599.226562 723.421875 627.15625 C 739.546875 655.085938 775.261719 664.660156 803.195312 648.53125 C 831.125 632.40625 840.691406 596.691406 824.566406 568.761719 C 808.441406 540.832031 772.730469 531.257812 744.792969 547.382812 Z M 591.796875 665.910156 C 567.828125 644.328125 530.90625 646.261719 509.328125 670.230469 C 487.746094 694.199219 489.679688 731.125 513.648438 752.703125 C 537.617188 774.285156 574.539062 772.347656 596.117188 748.378906 C 617.703125 724.414062 615.765625 687.488281 591.796875 665.910156 Z M 431.796875 557.027344 C 444.914062 527.5625 431.667969 493.042969 402.203125 479.925781 C 372.734375 466.804688 338.21875 480.058594 325.101562 509.519531 C 311.984375 538.984375 325.230469 573.503906 354.695312 586.621094 C 384.15625 599.738281 418.675781 586.488281 431.796875 557.027344 Z M 431.796875 557.027344 " fill-opacity="1" fill-rule="nonzero"/><g clip-path="url(#e2252e4100)"><g clip-path="url(#fc9564be92)"><g transform="matrix(1, 0, 0, 1, 226, 374)"><g clip-path="url(#9489edc0dc)"><g clip-path="url(#3f39762572)"><g clip-path="url(#696af6e57e)"><path fill="#1f4229" d="M 0.984375 0.332031 L 704.714844 0.332031 L 704.714844 513.59375 L 0.984375 513.59375 Z M 0.984375 0.332031 " fill-opacity="1" fill-rule="nonzero"/></g></g></g></g></g></g><g clip-path="url(#f70254a0e1)"><g clip-path="url(#66f9e94dfb)"><g transform="matrix(1, 0, 0, 1, 278, 136)"><g clip-path="url(#f1b125f6ec)"><g clip-path="url(#b701d23899)"><g clip-path="url(#41f0ec1e2c)"><path fill="#1f4229" d="M 0.0703125 0.851562 L 371.203125 0.851562 L 371.203125 514.058594 L 0.0703125 514.058594 Z M 0.0703125 0.851562 " fill-opacity="1" fill-rule="nonzero"/></g></g></g></g></g></g><g transform="matrix(1, 0, 0, 1, 352, 455)"><g clip-path="url(#90ef37c7d8)"><g fill="#e3cbec" fill-opacity="1"><g transform="translate(0.771996, 368.415797)"><g><path d="M 16 -222.28125 C 12 -222.28125 8.75 -223.53125 6.25 -226.03125 C 3.75 -228.53125 2.5 -231.78125 2.5 -235.78125 L 2.5 -236.53125 C 2.5 -240.53125 3.75 -243.78125 6.25 -246.28125 C 8.75 -248.78125 12 -250.03125 16 -250.03125 L 28.5 -250.03125 L 28.5 -277.78125 C 28.5 -288.613281 30.375 -299.15625 34.125 -309.40625 C 37.875 -319.664062 43.5 -328.878906 51 -337.046875 C 58.5 -345.210938 67.832031 -351.710938 79 -356.546875 C 90.175781 -361.378906 103.179688 -363.796875 118.015625 -363.796875 C 128.515625 -363.796875 139.054688 -362.421875 149.640625 -359.671875 C 160.222656 -356.921875 169.929688 -353.003906 178.765625 -347.921875 C 187.609375 -342.835938 194.695312 -336.671875 200.03125 -329.421875 C 205.363281 -322.171875 208.03125 -313.957031 208.03125 -304.78125 C 208.03125 -296.28125 205.613281 -288.738281 200.78125 -282.15625 C 195.945312 -275.570312 189.691406 -270.445312 182.015625 -266.78125 C 174.347656 -263.113281 166.265625 -261.28125 157.765625 -261.28125 C 153.097656 -261.28125 149.222656 -262.488281 146.140625 -264.90625 C 143.054688 -267.320312 140.554688 -270.320312 138.640625 -273.90625 C 136.722656 -277.488281 135.097656 -281.195312 133.765625 -285.03125 C 132.429688 -288.863281 131.097656 -292.113281 129.765625 -294.78125 C 126.597656 -301.445312 122.640625 -307.113281 117.890625 -311.78125 C 113.140625 -316.457031 108.097656 -318.796875 102.765625 -318.796875 C 98.597656 -318.796875 95.265625 -317.25 92.765625 -314.15625 C 90.265625 -311.070312 89.015625 -307.363281 89.015625 -303.03125 C 89.015625 -298.363281 90.347656 -293.238281 93.015625 -287.65625 C 95.679688 -282.070312 98.972656 -276.15625 102.890625 -269.90625 C 106.804688 -263.65625 110.429688 -257.03125 113.765625 -250.03125 L 143.765625 -250.03125 C 147.765625 -250.03125 151.015625 -248.78125 153.515625 -246.28125 C 156.015625 -243.78125 157.265625 -240.53125 157.265625 -236.53125 L 157.265625 -235.78125 C 157.265625 -231.78125 156.015625 -228.53125 153.515625 -226.03125 C 151.015625 -223.53125 147.765625 -222.28125 143.765625 -222.28125 L 124.015625 -222.28125 C 124.015625 -220.445312 124.015625 -218.820312 124.015625 -217.40625 C 124.015625 -215.988281 124.015625 -214.53125 124.015625 -213.03125 C 124.015625 -213.03125 124.015625 -210.320312 124.015625 -204.90625 C 124.015625 -199.488281 124.015625 -192.859375 124.015625 -185.015625 C 124.015625 -163.347656 124.554688 -145.140625 125.640625 -130.390625 C 126.722656 -115.640625 128.097656 -103.429688 129.765625 -93.765625 C 131.429688 -84.097656 133.265625 -76.09375 135.265625 -69.75 C 137.265625 -63.414062 139.140625 -57.914062 140.890625 -53.25 C 142.640625 -48.582031 144.054688 -43.914062 145.140625 -39.25 C 146.222656 -34.582031 146.765625 -28.914062 146.765625 -22.25 C 146.765625 -16.25 145.304688 -11.707031 142.390625 -8.625 C 139.472656 -5.539062 135.890625 -3.375 131.640625 -2.125 C 127.390625 -0.875 123.179688 -0.207031 119.015625 -0.125 C 114.847656 -0.0390625 111.429688 0 108.765625 0 L 44 0 C 41.332031 0 37.914062 -0.0390625 33.75 -0.125 C 29.582031 -0.207031 25.375 -0.875 21.125 -2.125 C 16.875 -3.375 13.289062 -5.539062 10.375 -8.625 C 7.457031 -11.707031 6 -16.25 6 -22.25 C 6 -28.914062 6.539062 -34.582031 7.625 -39.25 C 8.707031 -43.914062 10.125 -48.582031 11.875 -53.25 C 13.625 -57.914062 15.457031 -63.414062 17.375 -69.75 C 19.289062 -76.09375 21.125 -84.097656 22.875 -93.765625 C 24.625 -103.429688 26.039062 -115.640625 27.125 -130.390625 C 28.207031 -145.140625 28.75 -163.347656 28.75 -185.015625 L 28.5 -222.28125 Z M 16 -222.28125 "/></g></g></g><g fill="#e3cbec" fill-opacity="1"><g transform="translate(244.05211, 368.415797)"><g><path d="M 6.25 -125.015625 C 6.25 -140.847656 8.957031 -156.429688 14.375 -171.765625 C 19.789062 -187.109375 28.039062 -200.945312 39.125 -213.28125 C 50.207031 -225.613281 64.207031 -235.445312 81.125 -242.78125 C 98.050781 -250.113281 118.097656 -253.78125 141.265625 -253.78125 C 154.097656 -253.78125 166.429688 -252.15625 178.265625 -248.90625 C 190.109375 -245.65625 200.65625 -240.738281 209.90625 -234.15625 C 219.15625 -227.570312 226.488281 -219.363281 231.90625 -209.53125 C 237.320312 -199.695312 240.03125 -188.191406 240.03125 -175.015625 C 240.03125 -160.515625 237.820312 -147.929688 233.40625 -137.265625 C 228.988281 -126.597656 223.070312 -117.597656 215.65625 -110.265625 C 208.238281 -102.929688 200.023438 -96.890625 191.015625 -92.140625 C 182.015625 -87.390625 172.929688 -83.597656 163.765625 -80.765625 C 155.097656 -78.097656 147.472656 -76.847656 140.890625 -77.015625 C 134.304688 -77.179688 129.097656 -77.265625 125.265625 -77.265625 C 123.097656 -77.265625 121.472656 -77.054688 120.390625 -76.640625 C 119.304688 -76.222656 118.765625 -75.265625 118.765625 -73.765625 C 118.765625 -71.097656 120.222656 -68.929688 123.140625 -67.265625 C 126.054688 -65.597656 129.554688 -64.382812 133.640625 -63.625 C 137.722656 -62.875 141.429688 -62.5 144.765625 -62.5 C 153.765625 -62.5 161.347656 -63.625 167.515625 -65.875 C 173.679688 -68.132812 179.097656 -70.679688 183.765625 -73.515625 C 188.441406 -76.347656 192.945312 -78.890625 197.28125 -81.140625 C 201.613281 -83.390625 206.363281 -84.515625 211.53125 -84.515625 C 217.195312 -84.515625 222.070312 -83.140625 226.15625 -80.390625 C 230.238281 -77.640625 233.570312 -74.140625 236.15625 -69.890625 C 238.738281 -65.640625 240.65625 -61.257812 241.90625 -56.75 C 243.15625 -52.25 243.78125 -48.164062 243.78125 -44.5 C 243.78125 -37 240.15625 -29.539062 232.90625 -22.125 C 225.65625 -14.707031 214.484375 -8.539062 199.390625 -3.625 C 184.304688 1.289062 164.929688 3.75 141.265625 3.75 C 119.265625 3.75 99.882812 0.125 83.125 -7.125 C 66.375 -14.375 52.289062 -24.164062 40.875 -36.5 C 29.457031 -48.832031 20.832031 -62.664062 15 -78 C 9.164062 -93.34375 6.25 -109.015625 6.25 -125.015625 Z M 102.765625 -151.515625 C 98.597656 -140.847656 97.097656 -132.222656 98.265625 -125.640625 C 99.429688 -119.054688 103.097656 -115.765625 109.265625 -115.765625 C 115.597656 -115.765625 121.972656 -119.054688 128.390625 -125.640625 C 134.804688 -132.222656 140.097656 -140.847656 144.265625 -151.515625 C 148.597656 -162.347656 150.140625 -171.054688 148.890625 -177.640625 C 147.640625 -184.222656 143.847656 -187.515625 137.515625 -187.515625 C 131.347656 -187.515625 125.097656 -184.222656 118.765625 -177.640625 C 112.429688 -171.054688 107.097656 -162.347656 102.765625 -151.515625 Z M 102.765625 -151.515625 "/></g></g></g></g></g><g clip-path="url(#9816576c18)"><path fill="#1f4229" d="M 865.210938 785.570312 C 865.210938 785.570312 870.664062 812.164062 910.65625 791.929688 C 910.65625 791.929688 928.027344 779.144531 904.640625 762.21875 C 904.640625 762.21875 873.53125 717.894531 865.210938 785.570312 Z M 865.210938 785.570312 " fill-opacity="1" fill-rule="nonzero"/></g><path fill="#1f4229" d="M 940.539062 772.917969 C 940.539062 772.917969 943.199219 785.9375 962.800781 776.023438 C 962.800781 776.023438 971.324219 769.75 959.871094 761.453125 C 959.871094 761.453125 944.621094 739.75 940.539062 772.917969 Z M 940.539062 772.917969 " fill-opacity="1" fill-rule="nonzero"/><g clip-path="url(#d22f3cde4f)"><path fill="#1f4229" d="M 929.945312 817.910156 C 929.945312 817.910156 885.203125 832.449219 906.710938 848.210938 C 928.179688 863.953125 938.988281 869.515625 938.988281 869.515625 C 938.988281 869.515625 974.808594 819.664062 952.359375 818.792969 C 929.945312 817.910156 929.945312 817.910156 929.945312 817.910156 Z M 929.945312 817.910156 " fill-opacity="1" fill-rule="nonzero"/></g><g transform="matrix(1, 0, 0, 1, 330, 101)"><g clip-path="url(#f82318e2d8)"><g fill="#e3cbec" fill-opacity="1"><g transform="translate(1.520246, 363.8899)"><g><path d="M 150.515625 -59.75 C 150.515625 -64.257812 148.472656 -67.929688 144.390625 -70.765625 C 140.304688 -73.597656 134.847656 -76.054688 128.015625 -78.140625 C 121.179688 -80.222656 113.472656 -82.265625 104.890625 -84.265625 C 96.304688 -86.265625 87.472656 -88.640625 78.390625 -91.390625 C 69.304688 -94.140625 60.46875 -97.597656 51.875 -101.765625 C 43.289062 -105.929688 35.582031 -111.222656 28.75 -117.640625 C 21.914062 -124.054688 16.457031 -131.929688 12.375 -141.265625 C 8.289062 -150.597656 6.25 -161.847656 6.25 -175.015625 C 6.25 -188.359375 9.164062 -199.945312 15 -209.78125 C 20.832031 -219.613281 28.789062 -227.78125 38.875 -234.28125 C 48.957031 -240.78125 60.457031 -245.65625 73.375 -248.90625 C 86.300781 -252.15625 99.765625 -253.78125 113.765625 -253.78125 C 121.929688 -253.78125 130.929688 -253.320312 140.765625 -252.40625 C 150.597656 -251.488281 160.429688 -249.90625 170.265625 -247.65625 C 180.097656 -245.40625 189.140625 -242.28125 197.390625 -238.28125 C 205.648438 -234.28125 212.28125 -229.238281 217.28125 -223.15625 C 222.28125 -217.070312 224.78125 -209.695312 224.78125 -201.03125 C 224.78125 -190.351562 221.28125 -182.304688 214.28125 -176.890625 C 207.28125 -171.472656 198.445312 -168.765625 187.78125 -168.765625 C 178.601562 -168.765625 170.472656 -169.804688 163.390625 -171.890625 C 156.304688 -173.972656 149.972656 -176.554688 144.390625 -179.640625 C 138.804688 -182.722656 133.554688 -185.804688 128.640625 -188.890625 C 123.722656 -191.984375 118.929688 -194.570312 114.265625 -196.65625 C 109.597656 -198.738281 104.597656 -199.78125 99.265625 -199.78125 C 96.429688 -199.78125 93.472656 -199.195312 90.390625 -198.03125 C 87.304688 -196.863281 85.765625 -194.28125 85.765625 -190.28125 C 85.765625 -186.601562 87.847656 -183.515625 92.015625 -181.015625 C 96.179688 -178.515625 101.765625 -176.265625 108.765625 -174.265625 C 115.765625 -172.265625 123.597656 -170.222656 132.265625 -168.140625 C 140.929688 -166.054688 149.929688 -163.597656 159.265625 -160.765625 C 168.597656 -157.929688 177.597656 -154.472656 186.265625 -150.390625 C 194.941406 -146.304688 202.78125 -141.265625 209.78125 -135.265625 C 216.78125 -129.265625 222.363281 -122.054688 226.53125 -113.640625 C 230.695312 -105.222656 232.78125 -95.179688 232.78125 -83.515625 C 232.78125 -67.503906 229.613281 -53.957031 223.28125 -42.875 C 216.945312 -31.789062 208.316406 -22.832031 197.390625 -16 C 186.472656 -9.164062 174.140625 -4.164062 160.390625 -1 C 146.640625 2.164062 132.265625 3.75 117.265625 3.75 C 103.265625 3.75 89.675781 2.914062 76.5 1.25 C 63.332031 -0.414062 51.5 -3.25 41 -7.25 C 30.5 -11.25 22.164062 -16.707031 16 -23.625 C 9.832031 -30.539062 6.75 -39.332031 6.75 -50 C 6.75 -61.34375 10.125 -70.304688 16.875 -76.890625 C 23.625 -83.472656 32.5 -86.765625 43.5 -86.765625 C 51.332031 -86.765625 58.414062 -85.390625 64.75 -82.640625 C 71.09375 -79.890625 77.054688 -76.554688 82.640625 -72.640625 C 88.222656 -68.722656 93.722656 -64.757812 99.140625 -60.75 C 104.554688 -56.75 110.179688 -53.375 116.015625 -50.625 C 121.847656 -47.875 128.265625 -46.5 135.265625 -46.5 C 139.929688 -46.664062 143.640625 -47.875 146.390625 -50.125 C 149.140625 -52.375 150.515625 -55.582031 150.515625 -59.75 Z M 150.515625 -59.75 "/></g></g></g><g fill="#e3cbec" fill-opacity="1"><g transform="translate(273.303868, 363.8899)"><g><path d="M 6.25 -125.015625 C 6.25 -142.347656 8.207031 -157.597656 12.125 -170.765625 C 16.039062 -183.941406 21.332031 -195.28125 28 -204.78125 C 34.664062 -214.28125 42.082031 -222.15625 50.25 -228.40625 C 58.414062 -234.65625 66.832031 -239.65625 75.5 -243.40625 C 84.175781 -247.15625 92.515625 -249.820312 100.515625 -251.40625 C 108.515625 -252.988281 115.515625 -253.78125 121.515625 -253.78125 C 132.347656 -253.945312 140.972656 -253.695312 147.390625 -253.03125 C 153.804688 -252.363281 159.140625 -251.695312 163.390625 -251.03125 C 167.640625 -250.363281 171.847656 -250.03125 176.015625 -250.03125 C 184.691406 -250.03125 191.695312 -250.363281 197.03125 -251.03125 C 202.363281 -251.695312 206.988281 -252.320312 210.90625 -252.90625 C 214.820312 -253.488281 218.695312 -253.78125 222.53125 -253.78125 C 225.195312 -253.78125 228.320312 -253.445312 231.90625 -252.78125 C 235.488281 -252.113281 239.03125 -250.78125 242.53125 -248.78125 C 246.03125 -246.78125 248.945312 -243.945312 251.28125 -240.28125 C 253.613281 -236.613281 254.78125 -231.78125 254.78125 -225.78125 C 254.78125 -219.945312 253.90625 -213.863281 252.15625 -207.53125 C 250.40625 -201.195312 248.445312 -194.191406 246.28125 -186.515625 C 244.113281 -178.847656 242.15625 -170.015625 240.40625 -160.015625 C 238.65625 -150.015625 237.78125 -138.347656 237.78125 -125.015625 C 237.78125 -113.515625 238.40625 -103.722656 239.65625 -95.640625 C 240.90625 -87.554688 242.488281 -80.554688 244.40625 -74.640625 C 246.320312 -68.722656 248.238281 -63.550781 250.15625 -59.125 C 252.070312 -54.707031 253.65625 -50.5 254.90625 -46.5 C 256.15625 -42.5 256.78125 -38.25 256.78125 -33.75 C 256.78125 -26.414062 253.945312 -19.914062 248.28125 -14.25 C 242.613281 -8.582031 235.03125 -4.164062 225.53125 -1 C 216.03125 2.164062 205.363281 3.75 193.53125 3.75 C 188.351562 3.75 184.347656 3 181.515625 1.5 C 178.679688 0 176.390625 -1.707031 174.640625 -3.625 C 172.890625 -5.539062 171.015625 -7.25 169.015625 -8.75 C 167.015625 -10.25 164.347656 -11 161.015625 -11 C 157.347656 -11 154.097656 -10.25 151.265625 -8.75 C 148.429688 -7.25 145.222656 -5.539062 141.640625 -3.625 C 138.054688 -1.707031 133.597656 0 128.265625 1.5 C 122.929688 3 115.929688 3.75 107.265625 3.75 C 93.429688 3.75 80.382812 0.664062 68.125 -5.5 C 55.875 -11.664062 45.125 -20.414062 35.875 -31.75 C 26.625 -43.082031 19.375 -56.664062 14.125 -72.5 C 8.875 -88.34375 6.25 -105.847656 6.25 -125.015625 Z M 123.515625 -187.78125 C 116.847656 -187.78125 111.472656 -182.023438 107.390625 -170.515625 C 103.304688 -159.015625 101.265625 -143.847656 101.265625 -125.015625 C 101.265625 -106.347656 103.304688 -91.257812 107.390625 -79.75 C 111.472656 -68.25 116.847656 -62.5 123.515625 -62.5 C 130.179688 -62.5 135.554688 -68.25 139.640625 -79.75 C 143.722656 -91.257812 145.765625 -106.347656 145.765625 -125.015625 C 145.765625 -143.847656 143.722656 -159.015625 139.640625 -170.515625 C 135.554688 -182.023438 130.179688 -187.78125 123.515625 -187.78125 Z M 123.515625 -187.78125 "/></g></g></g></g></g></svg>